<?xml version="1.0" encoding="UTF-8"?>
<svg width="19px" height="21px" viewBox="0 0 19 21" version="1.1" xmlns="http://www.w3.org/2000/svg" xmlns:xlink="http://www.w3.org/1999/xlink">
    <!-- Generator: Sketch 63.1 (92452) - https://sketch.com -->
    <title>fuel_icon</title>
    <desc>Created with Sketch.</desc>
    <g id="Page-1" stroke="none" stroke-width="1" fill="none" fill-rule="evenodd" opacity="0.5">
        <g id="homepage" transform="translate(-30.000000, -1064.000000)" stroke="#000000" stroke-width="2">
            <g id="Group-5" transform="translate(0.000000, 784.000000)">
                <g id="fuel_icon" transform="translate(30.000000, 281.000000)">
                    <path d="M3.98507463,0 L10.1641791,0 C11.2687486,-2.02906125e-16 12.1641791,0.8954305 12.1641791,2 L12.1641791,18.6716418 L12.1641791,18.6716418 L1.98507463,18.6716418 L1.98507463,2 C1.98507463,0.8954305 2.88050513,2.02906125e-16 3.98507463,0 Z" id="Rectangle"></path>
                    <path d="M12.4925373,8.69248099 C13.7619679,8.69248099 14.7910448,9.72155783 14.7910448,10.9909885 L14.7910448,14.7164179 C14.7910448,15.4418068 15.3790887,16.0298507 16.1044776,16.0298507 C16.81022,16.0298507 17.3823372,15.4577335 17.3823372,14.7519911 C17.3823372,14.7402967 17.3821767,14.7286029 17.3818557,14.7169129 L17.0895522,4.07265559 L17.0895522,4.07265559 L14.1343284,1.62686567" id="Path-6"></path>
                    <line x1="2" y1="7" x2="12" y2="7" id="Path-7"></line>
                    <line x1="3.55271368e-15" y1="18.6716418" x2="14.4776119" y2="18.6716418" id="Path-5"></line>
                </g>
            </g>
        </g>
    </g>
</svg>