<?xml version="1.0" encoding="UTF-8"?>
<svg width="459px" height="125px" viewBox="0 0 459 125" version="1.1" xmlns="http://www.w3.org/2000/svg" xmlns:xlink="http://www.w3.org/1999/xlink">
    <!-- Generator: Sketch 63.1 (92452) - https://sketch.com -->
    <title>logo</title>
    <desc>Created with Sketch.</desc>
    <g id="Page-1" stroke="none" stroke-width="1" fill="none" fill-rule="evenodd">
        <g id="profile_pic" transform="translate(-71.000000, -236.000000)" fill-rule="nonzero">
            <g id="Group" transform="translate(71.000000, 236.000000)">
                <g id="logo" transform="translate(0.890625, 0.784000)">
                    <path d="M13.755375,66.216 L13.755375,41.292 L26.496375,41.292 C40.167375,41.292 48.351375,31.899 48.351375,20.646 C48.351375,9.393 40.167375,0 26.496375,0 L0.828375,0 L0.828375,66.216 L13.755375,66.216 Z M25.845375,29.667 L13.755375,29.667 L13.755375,11.532 L25.845375,11.532 C31.704375,11.532 35.424375,15.252 35.424375,20.646 C35.424375,26.04 31.704375,29.667 25.845375,29.667 Z M81.459375,66.216 L81.459375,39.804 L90.759375,39.804 L103.686375,66.216 L118.659375,66.216 L103.872375,37.665 C110.289375,35.34 115.962375,29.574 115.962375,20.274 C115.962375,9.207 107.964375,0 94.479375,0 L68.532375,0 L68.532375,66.216 L81.459375,66.216 Z M93.642375,29.016 L81.459375,29.016 L81.459375,11.532 L93.642375,11.532 C99.315375,11.532 103.035375,15.159 103.035375,20.274 C103.035375,25.389 99.315375,29.016 93.642375,29.016 Z M182.271375,66.216 L182.271375,54.684 L151.581375,54.684 L151.581375,38.595 L177.714375,38.595 L177.714375,27.063 L151.581375,27.063 L151.581375,11.532 L182.271375,11.532 L182.271375,0 L138.654375,0 L138.654375,66.216 L182.271375,66.216 Z M217.146375,66.216 L217.146375,27.621 L229.887375,52.731 L238.629375,52.731 L251.277375,27.621 L251.277375,66.216 L264.204375,66.216 L264.204375,0 L251.463375,0 L234.258375,35.805 L216.960375,0 L204.219375,0 L204.219375,66.216 L217.146375,66.216 Z M301.869375,66.216 L301.869375,0 L288.942375,0 L288.942375,66.216 L301.869375,66.216 Z M349.950375,66.774 C363.528375,66.774 374.316375,57.567 374.316375,43.524 L374.316375,0 L361.482375,0 L361.482375,43.059 C361.482375,50.685 356.925375,55.242 349.950375,55.242 C342.975375,55.242 338.511375,50.685 338.511375,43.059 L338.511375,0 L325.584375,0 L325.584375,43.524 C325.584375,57.567 336.372375,66.774 349.950375,66.774 Z M410.958375,66.216 L410.958375,27.621 L423.699375,52.731 L432.441375,52.731 L445.089375,27.621 L445.089375,66.216 L458.016375,66.216 L458.016375,0 L445.275375,0 L428.070375,35.805 L410.772375,0 L398.031375,0 L398.031375,66.216 L410.958375,66.216 Z" id="PREMIUM" fill="#ECBB46"></path>
                    <path d="M4.1765625,123.216 L4.1765625,110.644125 L8.24765625,110.644125 L14.1117187,123.216 L18.8789062,123.216 L12.6984375,110.180062 C13.7390625,109.800375 14.596875,109.276547 15.271875,108.608578 C15.946875,107.940609 16.4777344,107.226937 16.8644531,106.467562 C17.2511719,105.708187 17.5183594,104.952328 17.6660156,104.199984 C17.8136719,103.447641 17.8875,102.790219 17.8875,102.227719 L17.8875,102.227719 L17.8875,100.793344 C17.8875,100.343344 17.8417969,99.8230312 17.7503906,99.2324062 C17.6589844,98.6417812 17.49375,98.0370937 17.2546875,97.4183437 C17.015625,96.7995937 16.6886719,96.1913906 16.2738281,95.5937344 C15.8589844,94.9960781 15.3351562,94.4617031 14.7023437,93.9906094 C14.0695312,93.5195156 13.3066406,93.1398281 12.4136719,92.8515469 C11.5207031,92.5632656 10.4765625,92.419125 9.28125,92.419125 L9.28125,92.419125 L-1.70530257e-13,92.419125 L-1.70530257e-13,123.216 L4.1765625,123.216 Z M9.28125,106.488656 L4.1765625,106.488656 L4.1765625,96.5956875 L9.196875,96.5956875 C9.590625,96.5956875 10.0476562,96.6449062 10.5679687,96.7433437 C11.0882812,96.8417812 11.5734375,97.0456875 12.0234375,97.3550625 C12.4734375,97.6644375 12.8566406,98.100375 13.1730469,98.662875 C13.4894531,99.225375 13.6476562,99.9777187 13.6476562,100.919906 L13.6476562,100.919906 L13.6476562,102.185531 C13.6476562,103.127719 13.4964844,103.880062 13.1941406,104.442562 C12.8917969,105.005062 12.515625,105.437484 12.065625,105.739828 C11.615625,106.042172 11.1375,106.242562 10.63125,106.341 C10.125,106.439437 9.675,106.488656 9.28125,106.488656 L9.28125,106.488656 Z M63.72375,123.216 L63.72375,119.060531 L50.7932812,119.060531 L50.7932812,109.041 L62.7745312,109.041 L62.7745312,104.906625 L50.7932812,104.906625 L50.7932812,96.5956875 L63.72375,96.5956875 L63.72375,92.419125 L46.6167187,92.419125 L46.6167187,123.216 L63.72375,123.216 Z M95.55375,123.216 L95.55375,101.826937 L104.66625,123.216 L109.39125,123.216 L109.39125,92.419125 L105.235781,92.419125 L105.235781,114.145687 L95.9967187,92.419125 L91.3771875,92.419125 L91.3771875,123.216 L95.55375,123.216 Z M147.443906,123.216 L147.443906,96.637875 L154.742344,96.637875 L154.742344,92.419125 L135.99,92.419125 L135.99,96.637875 L143.24625,96.637875 L143.24625,123.216 L147.443906,123.216 Z M182.016094,123.216 L184.209844,114.841781 L193.512187,114.841781 L195.66375,123.216 L199.945781,123.216 L191.7825,92.419125 L185.728594,92.419125 L177.691875,123.216 L182.016094,123.216 Z M192.415312,110.686312 L185.20125,110.686312 L188.871562,96.9542812 L192.415312,110.686312 Z M243.588281,123.216 L243.588281,119.060531 L230.7,119.060531 L230.7,92.419125 L226.523437,92.419125 L226.523437,123.216 L243.588281,123.216 Z M310.074844,123.595687 C311.256094,123.595687 312.296719,123.451547 313.196719,123.163266 C314.096719,122.874984 314.877187,122.491781 315.538125,122.013656 C316.199062,121.535531 316.754531,120.994125 317.204531,120.389437 C317.654531,119.78475 318.013125,119.169516 318.280312,118.543734 C318.5475,117.917953 318.737344,117.302719 318.849844,116.698031 C318.962344,116.093344 319.018594,115.558969 319.018594,115.094906 L319.018594,115.094906 L314.77875,115.094906 C314.77875,116.037094 314.606484,116.792953 314.261953,117.362484 C313.917422,117.932016 313.499062,118.367953 313.006875,118.670297 C312.514687,118.972641 312.001406,119.173031 311.467031,119.271469 C310.932656,119.369906 310.482656,119.419125 310.117031,119.419125 C309.723281,119.419125 309.252187,119.369906 308.70375,119.271469 C308.155312,119.173031 307.631484,118.969125 307.132266,118.65975 C306.633047,118.350375 306.207656,117.910922 305.856094,117.341391 C305.504531,116.771859 305.32875,116.008969 305.32875,115.052719 L305.32875,115.052719 L305.32875,100.624594 C305.32875,99.6824062 305.504531,98.9300625 305.856094,98.3675625 C306.207656,97.8050625 306.633047,97.369125 307.132266,97.05975 C307.631484,96.750375 308.155312,96.5464687 308.70375,96.4480312 C309.252187,96.3495937 309.723281,96.300375 310.117031,96.300375 C310.482656,96.300375 310.932656,96.3495937 311.467031,96.4480312 C312.001406,96.5464687 312.514687,96.7468594 313.006875,97.0492031 C313.499062,97.3515469 313.917422,97.7839687 314.261953,98.3464687 C314.606484,98.9089687 314.77875,99.6542812 314.77875,100.582406 L314.77875,100.582406 L319.018594,100.582406 C319.018594,100.118344 318.958828,99.591 318.839297,99.000375 C318.719766,98.40975 318.519375,97.8050625 318.238125,97.1863125 C317.956875,96.5675625 317.59125,95.9593594 317.14125,95.3617031 C316.69125,94.7640469 316.135781,94.2331875 315.474844,93.769125 C314.813906,93.3050625 314.040469,92.9288906 313.154531,92.6406094 C312.268594,92.3523281 311.256094,92.2081875 310.117031,92.2081875 C308.921719,92.2081875 307.870547,92.3523281 306.963516,92.6406094 C306.056484,92.9288906 305.2725,93.3050625 304.611562,93.769125 C303.950625,94.2331875 303.398672,94.7605312 302.955703,95.3511562 C302.512734,95.9417812 302.161172,96.5464687 301.901016,97.1652187 C301.640859,97.7839687 301.454531,98.3886562 301.342031,98.9792812 C301.229531,99.5699062 301.173281,100.090219 301.173281,100.540219 L301.173281,100.540219 L301.173281,115.052719 C301.173281,115.516781 301.233047,116.051156 301.352578,116.655844 C301.472109,117.260531 301.665469,117.879281 301.932656,118.512094 C302.199844,119.144906 302.558437,119.767172 303.008437,120.378891 C303.458437,120.990609 304.013906,121.532016 304.674844,122.003109 C305.335781,122.474203 306.109219,122.857406 306.995156,123.152719 C307.881094,123.448031 308.907656,123.595687 310.074844,123.595687 Z M348.739219,123.216 L350.932969,114.841781 L360.235312,114.841781 L362.386875,123.216 L366.668906,123.216 L358.505625,92.419125 L352.451719,92.419125 L344.415,123.216 L348.739219,123.216 Z M359.138437,110.686312 L351.924375,110.686312 L355.594687,96.9542812 L359.138437,110.686312 Z M397.423125,123.216 L397.423125,110.644125 L401.494219,110.644125 L407.358281,123.216 L412.125469,123.216 L405.945,110.180062 C406.985625,109.800375 407.843437,109.276547 408.518437,108.608578 C409.193437,107.940609 409.724297,107.226937 410.111016,106.467562 C410.497734,105.708187 410.764922,104.952328 410.912578,104.199984 C411.060234,103.447641 411.134062,102.790219 411.134062,102.227719 L411.134062,102.227719 L411.134062,100.793344 C411.134062,100.343344 411.088359,99.8230312 410.996953,99.2324062 C410.905547,98.6417812 410.740312,98.0370937 410.50125,97.4183437 C410.262187,96.7995937 409.935234,96.1913906 409.520391,95.5937344 C409.105547,94.9960781 408.581719,94.4617031 407.948906,93.9906094 C407.316094,93.5195156 406.553203,93.1398281 405.660234,92.8515469 C404.767266,92.5632656 403.723125,92.419125 402.527812,92.419125 L402.527812,92.419125 L393.246562,92.419125 L393.246562,123.216 L397.423125,123.216 Z M402.527812,106.488656 L397.423125,106.488656 L397.423125,96.5956875 L402.443437,96.5956875 C402.837187,96.5956875 403.294219,96.6449062 403.814531,96.7433437 C404.334844,96.8417812 404.82,97.0456875 405.27,97.3550625 C405.72,97.6644375 406.103203,98.100375 406.419609,98.662875 C406.736016,99.225375 406.894219,99.9777187 406.894219,100.919906 L406.894219,100.919906 L406.894219,102.185531 C406.894219,103.127719 406.743047,103.880062 406.440703,104.442562 C406.138359,105.005062 405.762187,105.437484 405.312187,105.739828 C404.862187,106.042172 404.384062,106.242562 403.877812,106.341 C403.371562,106.439437 402.921562,106.488656 402.527812,106.488656 L402.527812,106.488656 Z M447.752344,123.637875 C449.074219,123.637875 450.311719,123.423422 451.464844,122.994516 C452.617969,122.565609 453.616406,121.971469 454.460156,121.212094 C455.303906,120.452719 455.968359,119.549203 456.453516,118.501547 C456.938672,117.453891 457.18125,116.318344 457.18125,115.094906 C457.18125,113.337094 456.769922,111.776156 455.947266,110.412094 C455.124609,109.048031 453.925781,107.944125 452.350781,107.100375 C451.338281,106.537875 450.276562,105.985922 449.165625,105.444516 C448.054687,104.903109 446.880469,104.316 445.642969,103.683187 C444.883594,103.289437 444.296484,102.800766 443.881641,102.217172 C443.466797,101.633578 443.259375,100.969125 443.259375,100.223812 C443.259375,99.591 443.378906,99.0285 443.617969,98.5363125 C443.857031,98.044125 444.180469,97.6292812 444.588281,97.2917812 C444.996094,96.9542812 445.477734,96.6976406 446.033203,96.5218594 C446.588672,96.3460781 447.175781,96.2581875 447.794531,96.2581875 C448.483594,96.2581875 449.119922,96.3531094 449.703516,96.5429531 C450.287109,96.7327969 450.789844,97.0070156 451.211719,97.3656094 C451.633594,97.7242031 451.964062,98.1671719 452.203125,98.6945156 C452.442187,99.2218594 452.561719,99.8230312 452.561719,100.498031 L452.561719,100.498031 L456.780469,100.498031 C456.780469,99.2886562 456.5625,98.1706875 456.126562,97.144125 C455.690625,96.1175625 455.075391,95.2351406 454.280859,94.4968594 C453.486328,93.7585781 452.537109,93.1820156 451.433203,92.7671719 C450.329297,92.3523281 449.116406,92.1449062 447.794531,92.1449062 C446.528906,92.1449062 445.365234,92.3417812 444.303516,92.7355312 C443.241797,93.1292812 442.327734,93.6812344 441.561328,94.3913906 C440.794922,95.1015469 440.197266,95.9452969 439.768359,96.9226406 C439.339453,97.8999844 439.125,98.97225 439.125,100.139437 C439.125,100.926937 439.226953,101.675766 439.430859,102.385922 C439.634766,103.096078 439.923047,103.7535 440.295703,104.358187 C440.668359,104.962875 441.107812,105.504281 441.614062,105.982406 C442.120312,106.460531 442.682812,106.84725 443.301562,107.142562 C444.24375,107.606625 445.083984,108.024984 445.822266,108.397641 C446.560547,108.770297 447.210937,109.104281 447.773437,109.399594 C448.335937,109.694906 448.828125,109.958578 449.25,110.190609 C449.671875,110.422641 450.0375,110.630062 450.346875,110.812875 C451.134375,111.262875 451.777734,111.825375 452.276953,112.500375 C452.776172,113.175375 453.025781,114.012094 453.025781,115.010531 C453.025781,115.657406 452.902734,116.255062 452.656641,116.8035 C452.410547,117.351937 452.055469,117.823031 451.591406,118.216781 C451.127344,118.610531 450.568359,118.916391 449.914453,119.134359 C449.260547,119.352328 448.525781,119.461312 447.710156,119.461312 C446.992969,119.461312 446.335547,119.366391 445.737891,119.176547 C445.140234,118.986703 444.623437,118.705453 444.1875,118.332797 C443.751562,117.960141 443.410547,117.503109 443.164453,116.961703 C442.918359,116.420297 442.795312,115.798031 442.795312,115.094906 L442.795312,115.094906 L438.597656,115.094906 C438.597656,116.304281 438.812109,117.429281 439.241016,118.469906 C439.669922,119.510531 440.285156,120.414047 441.086719,121.180453 C441.888281,121.946859 442.851562,122.548031 443.976562,122.983969 C445.101562,123.419906 446.360156,123.637875 447.752344,123.637875 Z" id="RENTALCARS" fill="#FFFFFF"></path>
                </g>
            </g>
        </g>
    </g>
</svg>